# xmcd
# Track frame offsets:
# 150
# 13100
# 25332
# 37450
# 52887
# 65727
# 79380
# 94660
# 105100
# 116590
# 131062
# 144302
#
# Disc length: 2084 seconds
# Revision: 0
# Processed by: cddbd v1.5.2PL0 Copyright (c) Steve Scherf et al.
# Submitted via: VisiTrax 2.11.2.271 - For more info visit www.synapsa.com
#
DISCID=a308220c
DTITLE=Slim Dusty - Songs In The Saddle
DYEAR=1963
DGENRE=Australian Country
TTITLE0=Man From The Never Never
TTITLE1=When They Muster On The Golden Plain
TTITLE2=The Rodeo Dance
TTITLE3=Harry The Breaker
TTITLE4=Sat'day In The Saddle
TTITLE5=Springtime On The Range
TTITLE6=Once When I Was Mustering
TTITLE7=The Saddle Is His Home
TTITLE8=My Pony Whipstick
TTITLE9=Saddle Boy
TTITLE10=Just Saddle Old Darky
TTITLE11=Mareeba's Rodeo Song
EXTD=YEAR: 1963
EXTT0=
EXTT1=
EXTT2=
EXTT3=
EXTT4=
EXTT5=
EXTT6=
EXTT7=
EXTT8=
EXTT9=
EXTT10=
EXTT11=
PLAYORDER=
